<svg width="56" height="55" viewBox="0 0 56 55" fill="none" xmlns="http://www.w3.org/2000/svg">
<g id="wedding-rings-svgrepo-com 1">
<g id="Group">
<g id="Group_2">
<path id="Vector" d="M10.7296 26.0945C10.7296 20.2323 15.4983 15.4624 21.3641 15.4624C27.2227 15.4624 31.9926 20.2323 31.9926 26.0945C31.9926 29.6574 30.2317 32.8161 27.5353 34.746C27.0537 35.7321 26.781 36.8401 26.781 38.0132C26.781 39.3976 27.1587 40.6975 27.8177 41.8079C33.9926 39.2612 38.3509 33.1794 38.3509 26.0957C38.3509 18.3506 33.1416 11.8005 26.0447 9.76431L29.5171 6.61897V2.2534C29.5147 0.989708 28.4924 0 27.23 0H15.4935C14.231 0 13.1966 0.989708 13.1966 2.2534V6.61777L16.6763 9.7619C9.57453 11.8005 4.37012 18.3494 4.37012 26.0945C4.37012 32.9742 8.48344 38.9112 14.3806 41.581C14.1718 40.4235 14.0644 39.2311 14.0644 38.0132C14.0644 36.6952 14.1924 35.4038 14.4374 34.1546C12.1659 32.2041 10.7296 29.3123 10.7296 26.0945Z" fill="#FFEFDB"/>
<path id="Vector_2" d="M41.2308 22.5363C41.4384 23.6913 41.547 24.879 41.547 26.0944C41.547 27.4184 41.4191 28.7123 41.1717 29.9663C43.4299 31.918 44.8637 34.8002 44.8637 38.0119C44.8637 43.8741 40.095 48.6465 34.2328 48.6465C28.3682 48.6465 23.5995 43.8754 23.5995 38.0119C23.5995 34.4369 25.3749 31.2674 28.0906 29.3363C28.5686 28.3563 28.8353 27.2543 28.8353 26.092C28.8353 24.704 28.4527 23.4053 27.7925 22.2925C21.6092 24.8355 17.2437 30.9223 17.2437 38.0107C17.2437 47.378 24.8644 54.9987 34.2328 54.9987C43.5976 54.9987 51.2184 47.378 51.2184 38.0107C51.2184 31.1407 47.1159 25.2085 41.2308 22.5363Z" fill="#FFEFDB"/>
</g>
</g>
</g>
</svg>
