<svg width="68" height="68" viewBox="0 0 68 68" fill="none" xmlns="http://www.w3.org/2000/svg">
<g id="Asset 87 1" clip-path="url(#clip0_56_2270)">
<g id="Layer 1">
<g id="Group">
<g id="Group_2">
<g id="Group_3">
<path id="Vector" d="M26.8064 58.9326C33.6356 57.3092 33.6832 52.8198 33.6832 52.8198C33.6832 52.8198 33.7321 57.3092 40.5613 58.9326L34.1165 67.6598C33.9005 67.9515 33.4647 67.9515 33.2487 67.6598L26.8052 58.9326H26.8064Z" fill="#FFEFDB"/>
<path id="Vector_2" d="M30.9831 41.0471V48.0912C30.9831 48.3866 30.96 48.6771 30.916 48.9602L26.2485 53.6278C26.0471 53.6595 25.842 53.6803 25.6333 53.6888C25.5491 53.6925 25.4648 53.6949 25.3794 53.6949V46.6521C25.5356 46.4421 25.7102 46.2407 25.9006 46.0503L30.9441 41.0068C30.9575 41.0203 30.9709 41.0337 30.9831 41.0471Z" fill="#FFEFDB"/>
<path id="Vector_3" d="M42.1433 46.602V53.6949C42.0115 53.6949 41.8821 53.69 41.7527 53.6815C41.6172 53.6717 41.483 53.6583 41.3499 53.6388L36.5957 48.8846C36.5591 48.6258 36.5396 48.3609 36.5396 48.0912V40.958H36.5945L41.5769 45.9405C41.7857 46.1492 41.9749 46.3701 42.1433 46.602Z" fill="#FFEFDB"/>
<path id="Vector_4" d="M22.0047 64.4205C23.2046 64.4205 24.1774 63.4478 24.1774 62.2479C24.1774 61.0479 23.2046 60.0752 22.0047 60.0752C20.8048 60.0752 19.832 61.0479 19.832 62.2479C19.832 63.4478 20.8048 64.4205 22.0047 64.4205Z" fill="#FFEFDB"/>
<path id="Vector_5" d="M45.3631 64.4205C46.563 64.4205 47.5357 63.4478 47.5357 62.2479C47.5357 61.0479 46.563 60.0752 45.3631 60.0752C44.1632 60.0752 43.1904 61.0479 43.1904 62.2479C43.1904 63.4478 44.1632 64.4205 45.3631 64.4205Z" fill="#FFEFDB"/>
</g>
<g id="Group_4">
<path id="Vector_6" d="M11.3527 46.8335C17.3299 50.5148 20.5376 47.3742 20.5376 47.3742C20.5376 47.3742 17.3983 50.5832 21.0784 56.5604L10.3505 58.174C9.99169 58.2277 9.68288 57.9189 9.73781 57.5601L11.3527 46.8335Z" fill="#FFEFDB"/>
<path id="Vector_7" d="M26.9544 37.0835V37.1384L21.972 42.1209C21.7632 42.3296 21.5423 42.5188 21.3104 42.6872H14.7082C14.5434 42.5676 14.3848 42.437 14.231 42.2967C14.2407 42.1612 14.2541 42.0269 14.2737 41.8939L19.0279 37.1396C19.2867 37.103 19.5515 37.0835 19.8213 37.0835H26.9544Z" fill="#FFEFDB"/>
<path id="Vector_8" d="M30.9836 41.0466V48.0907C30.9836 48.3861 30.9604 48.6766 30.9165 48.9597L25.9011 53.9752C25.8083 53.8824 25.7192 53.786 25.6338 53.6883C25.5447 53.5858 25.4604 53.482 25.3799 53.3746V46.6516C25.5361 46.4417 25.7107 46.2403 25.9011 46.0498L30.9446 41.0063C30.958 41.0198 30.9714 41.0332 30.9836 41.0466Z" fill="#FFEFDB"/>
<path id="Vector_9" d="M5.61358 47.9542C6.8135 47.9542 7.78624 46.9815 7.78624 45.7815C7.78624 44.5816 6.8135 43.6089 5.61358 43.6089C4.41365 43.6089 3.44092 44.5816 3.44092 45.7815C3.44092 46.9815 4.41365 47.9542 5.61358 47.9542Z" fill="#FFEFDB"/>
<path id="Vector_10" d="M22.1307 64.4713C23.3306 64.4713 24.3033 63.4986 24.3033 62.2986C24.3033 61.0987 23.3306 60.126 22.1307 60.126C20.9307 60.126 19.958 61.0987 19.958 62.2986C19.958 63.4986 20.9307 64.4713 22.1307 64.4713Z" fill="#FFEFDB"/>
</g>
<g id="Group_5">
<path id="Vector_11" d="M8.97974 27.3503C10.6031 34.1796 15.0925 34.2272 15.0925 34.2272C15.0925 34.2272 10.6031 34.276 8.97974 41.1052L0.252483 34.6605C-0.0392392 34.4444 -0.0392392 34.0087 0.252483 33.7926L8.97974 27.3491V27.3503Z" fill="#FFEFDB"/>
<path id="Vector_12" d="M26.9056 31.488C26.8922 31.5015 26.8788 31.5149 26.8653 31.5271H19.8213C19.5259 31.5271 19.2354 31.5039 18.9522 31.46L14.2847 26.7924C14.2529 26.591 14.2322 26.3859 14.2236 26.1772C14.3262 26.0881 14.4299 26.0027 14.5373 25.9233H21.2616C21.4715 26.0808 21.6717 26.2541 21.8621 26.4445L26.9056 31.488Z" fill="#FFEFDB"/>
<path id="Vector_13" d="M26.9544 37.0835V37.1384L21.3104 42.6872H14.7082C14.5434 42.5676 14.3848 42.437 14.231 42.2967C14.2407 42.1612 14.2541 42.0269 14.2737 41.8939L19.0279 37.1396C19.2867 37.103 19.5515 37.0835 19.8213 37.0835H26.9544Z" fill="#FFEFDB"/>
<path id="Vector_14" d="M5.66436 24.7213C6.86428 24.7213 7.83702 23.7486 7.83702 22.5486C7.83702 21.3487 6.86428 20.376 5.66436 20.376C4.46443 20.376 3.4917 21.3487 3.4917 22.5486C3.4917 23.7486 4.46443 24.7213 5.66436 24.7213Z" fill="#FFEFDB"/>
<path id="Vector_15" d="M5.66436 48.0797C6.86428 48.0797 7.83702 47.107 7.83702 45.907C7.83702 44.7071 6.86428 43.7344 5.66436 43.7344C4.46443 43.7344 3.4917 44.7071 3.4917 45.907C3.4917 47.107 4.46443 48.0797 5.66436 48.0797Z" fill="#FFEFDB"/>
</g>
<g id="Group_6">
<path id="Vector_16" d="M21.0786 11.8966C17.3973 17.8739 20.5379 21.0816 20.5379 21.0816C20.5379 21.0816 17.3289 17.9422 11.3517 21.6223L9.73803 10.8945C9.68433 10.5356 9.99314 10.2268 10.352 10.2818L21.0786 11.8966Z" fill="#FFEFDB"/>
<path id="Vector_17" d="M30.8288 20.3652V27.4984H30.7739L25.7915 22.5159C25.5827 22.3072 25.3935 22.0863 25.2251 21.8544V15.2522C25.3447 15.0874 25.4753 14.9287 25.6157 14.7749C25.7512 14.7847 25.8854 14.7981 26.0185 14.8176L30.7727 19.5718C30.8093 19.8306 30.8288 20.0955 30.8288 20.3652Z" fill="#FFEFDB"/>
<path id="Vector_18" d="M26.9056 31.4885C26.8922 31.5019 26.8788 31.5154 26.8653 31.5276H19.8213C19.5259 31.5276 19.2354 31.5044 18.9522 31.4604L14.2847 26.7929C14.2529 26.5915 14.2322 26.3864 14.2236 26.1777C14.3262 26.0886 14.4299 26.0032 14.5373 25.9238H21.2616C21.4715 26.0813 21.6717 26.2546 21.8621 26.445L26.9056 31.4885Z" fill="#FFEFDB"/>
<path id="Vector_19" d="M22.1307 8.33018C23.3306 8.33018 24.3033 7.35745 24.3033 6.15752C24.3033 4.9576 23.3306 3.98486 22.1307 3.98486C20.9307 3.98486 19.958 4.9576 19.958 6.15752C19.958 7.35745 20.9307 8.33018 22.1307 8.33018Z" fill="#FFEFDB"/>
<path id="Vector_20" d="M5.61358 24.8473C6.8135 24.8473 7.78624 23.8745 7.78624 22.6746C7.78624 21.4747 6.8135 20.502 5.61358 20.502C4.41365 20.502 3.44092 21.4747 3.44092 22.6746C3.44092 23.8745 4.41365 24.8473 5.61358 24.8473Z" fill="#FFEFDB"/>
</g>
<g id="Group_7">
<path id="Vector_21" d="M40.5615 9.52368C33.7323 11.1471 33.6847 15.6364 33.6847 15.6364C33.6847 15.6364 33.6359 11.1471 26.8066 9.52368L33.2514 0.796428C33.4674 0.504706 33.9032 0.504706 34.1192 0.796428L40.5627 9.52368H40.5615Z" fill="#FFEFDB"/>
<path id="Vector_22" d="M41.988 15.0813V21.8055C41.8318 22.0155 41.6572 22.2156 41.4668 22.4061L36.4233 27.4496C36.4099 27.4361 36.3965 27.4227 36.3843 27.4093V20.3652C36.3843 20.0698 36.4075 19.7793 36.4514 19.4962L41.119 14.8286C41.3204 14.7969 41.5254 14.7761 41.7341 14.7676L41.988 15.0813Z" fill="#FFEFDB"/>
<path id="Vector_23" d="M30.8284 20.3652V27.4984H30.7734L25.791 22.5159C25.5822 22.3072 25.3931 22.0863 25.2246 21.8544V15.2522C25.3442 15.0874 25.4748 14.9287 25.6152 14.7749C25.7507 14.7847 25.885 14.7981 26.018 14.8176L30.7722 19.5718C30.8088 19.8306 30.8284 20.0955 30.8284 20.3652Z" fill="#FFEFDB"/>
<path id="Vector_24" d="M45.3631 8.38096C46.563 8.38096 47.5357 7.40823 47.5357 6.2083C47.5357 5.00838 46.563 4.03564 45.3631 4.03564C44.1632 4.03564 43.1904 5.00838 43.1904 6.2083C43.1904 7.40823 44.1632 8.38096 45.3631 8.38096Z" fill="#FFEFDB"/>
<path id="Vector_25" d="M22.0047 8.38096C23.2046 8.38096 24.1774 7.40823 24.1774 6.2083C24.1774 5.00838 23.2046 4.03564 22.0047 4.03564C20.8048 4.03564 19.832 5.00838 19.832 6.2083C19.832 7.40823 20.8048 8.38096 22.0047 8.38096Z" fill="#FFEFDB"/>
</g>
<g id="Group_8">
<path id="Vector_26" d="M56.0157 21.6225C50.0385 17.9412 46.8308 21.0818 46.8308 21.0818C46.8308 21.0818 49.9701 17.8729 46.29 11.8956L57.0178 10.282C57.3767 10.2283 57.6855 10.5371 57.6306 10.8959L56.0157 21.6225Z" fill="#FFEFDB"/>
<path id="Vector_27" d="M53.1375 26.1596L53.0948 26.5624L48.3406 31.3166C48.0818 31.3533 47.817 31.3728 47.5472 31.3728H40.4141V31.3179L45.3965 26.3354C45.6053 26.1267 45.8262 25.9375 46.0581 25.769H52.6603C52.8251 25.8887 52.9837 26.0193 53.1375 26.1596Z" fill="#FFEFDB"/>
<path id="Vector_28" d="M41.9885 15.0813V21.8055C41.8323 22.0155 41.6577 22.2156 41.4673 22.4061L36.4238 27.4496C36.4104 27.4361 36.397 27.4227 36.3848 27.4093V20.3652C36.3848 20.0698 36.408 19.7793 36.4519 19.4962L41.1195 14.8286C41.3209 14.7969 41.5259 14.7761 41.7346 14.7676L41.9885 15.0813Z" fill="#FFEFDB"/>
<path id="Vector_29" d="M61.7547 24.8473C62.9546 24.8473 63.9274 23.8745 63.9274 22.6746C63.9274 21.4747 62.9546 20.502 61.7547 20.502C60.5548 20.502 59.582 21.4747 59.582 22.6746C59.582 23.8745 60.5548 24.8473 61.7547 24.8473Z" fill="#FFEFDB"/>
<path id="Vector_30" d="M45.2376 8.33018C46.4375 8.33018 47.4103 7.35745 47.4103 6.15752C47.4103 4.9576 46.4375 3.98486 45.2376 3.98486C44.0377 3.98486 43.0649 4.9576 43.0649 6.15752C43.0649 7.35745 44.0377 8.33018 45.2376 8.33018Z" fill="#FFEFDB"/>
</g>
<g id="Group_9">
<path id="Vector_31" d="M58.3886 41.1055C56.7652 34.2762 52.2759 34.2286 52.2759 34.2286C52.2759 34.2286 56.7652 34.1798 58.3886 27.3506L67.1159 33.7953C67.4076 34.0114 67.4076 34.4471 67.1159 34.6632L58.3886 41.1067V41.1055Z" fill="#FFEFDB"/>
<path id="Vector_32" d="M53.151 42.532H46.1069C45.897 42.3745 45.6968 42.2012 45.5064 42.0108L40.4629 36.9673C40.4763 36.9539 40.4897 36.9404 40.5032 36.9282H47.5472C47.8426 36.9282 48.1331 36.9514 48.4163 36.9954L53.0838 41.6629C53.1156 41.8643 53.1363 42.0694 53.1449 42.2781C53.1485 42.3623 53.151 42.4465 53.151 42.532Z" fill="#FFEFDB"/>
<path id="Vector_33" d="M53.1375 26.1591L53.0948 26.5619L48.3406 31.3162C48.0818 31.3528 47.817 31.3723 47.5472 31.3723H40.4141V31.3174L45.3965 26.3349C45.6053 26.1262 45.8262 25.937 46.0581 25.7686H52.6603C52.8251 25.8882 52.9837 26.0188 53.1375 26.1591Z" fill="#FFEFDB"/>
<path id="Vector_34" d="M61.7024 48.0797C62.9024 48.0797 63.8751 47.107 63.8751 45.907C63.8751 44.7071 62.9024 43.7344 61.7024 43.7344C60.5025 43.7344 59.5298 44.7071 59.5298 45.907C59.5298 47.107 60.5025 48.0797 61.7024 48.0797Z" fill="#FFEFDB"/>
<path id="Vector_35" d="M61.7024 24.7213C62.9024 24.7213 63.8751 23.7486 63.8751 22.5486C63.8751 21.3487 62.9024 20.376 61.7024 20.376C60.5025 20.376 59.5298 21.3487 59.5298 22.5486C59.5298 23.7486 60.5025 24.7213 61.7024 24.7213Z" fill="#FFEFDB"/>
</g>
<g id="Group_10">
<path id="Vector_36" d="M46.2896 56.5597C49.9709 50.5824 46.8303 47.3747 46.8303 47.3747C46.8303 47.3747 50.0392 50.5141 56.0165 46.834L57.6301 57.5618C57.6838 57.9207 57.375 58.2295 57.0161 58.1745L46.2896 56.5597Z" fill="#FFEFDB"/>
<path id="Vector_37" d="M42.1433 46.602V53.2042C42.0237 53.369 41.8931 53.5277 41.7527 53.6815C41.6966 53.7437 41.638 53.806 41.5769 53.8658L36.5957 48.8846C36.5591 48.6258 36.5396 48.3609 36.5396 48.0912V40.958H36.5945L41.5769 45.9405C41.7857 46.1492 41.9749 46.3701 42.1433 46.602Z" fill="#FFEFDB"/>
<path id="Vector_38" d="M53.4312 42.0113C53.3385 42.104 53.242 42.1931 53.1444 42.2786C53.0419 42.3677 52.9369 42.4531 52.8295 42.5325H46.1064C45.8965 42.375 45.6963 42.2017 45.5059 42.0113L40.4624 36.9678C40.4758 36.9543 40.4893 36.9409 40.5027 36.9287H47.5467C47.8421 36.9287 48.1326 36.9519 48.4158 36.9958L53.0834 41.6634L53.4312 42.0113Z" fill="#FFEFDB"/>
<path id="Vector_39" d="M45.2376 64.4713C46.4375 64.4713 47.4103 63.4986 47.4103 62.2986C47.4103 61.0987 46.4375 60.126 45.2376 60.126C44.0377 60.126 43.0649 61.0987 43.0649 62.2986C43.0649 63.4986 44.0377 64.4713 45.2376 64.4713Z" fill="#FFEFDB"/>
<path id="Vector_40" d="M61.7547 47.9542C62.9546 47.9542 63.9274 46.9815 63.9274 45.7815C63.9274 44.5816 62.9546 43.6089 61.7547 43.6089C60.5548 43.6089 59.582 44.5816 59.582 45.7815C59.582 46.9815 60.5548 47.9542 61.7547 47.9542Z" fill="#FFEFDB"/>
</g>
</g>
<path id="Vector_41" d="M33.869 38.2078C36.0673 38.2078 37.8494 36.4257 37.8494 34.2274C37.8494 32.0291 36.0673 30.2471 33.869 30.2471C31.6707 30.2471 29.8887 32.0291 29.8887 34.2274C29.8887 36.4257 31.6707 38.2078 33.869 38.2078Z" fill="#FFEFDB"/>
</g>
</g>
</g>
<defs>
<clipPath id="clip0_56_2270">
<rect width="67.2999" height="67.2999" fill="white" transform="translate(0.0341797 0.578125)"/>
</clipPath>
</defs>
</svg>
