<svg width="53" height="53" viewBox="0 0 53 53" fill="none" xmlns="http://www.w3.org/2000/svg">
<g id="glass-drinks-svgrepo-com 1" clip-path="url(#clip0_56_2380)">
<g id="Group">
<path id="Vector" fill-rule="evenodd" clip-rule="evenodd" d="M25.1628 18.4041C20.6895 14.3032 13.6768 16.178 7.74337 15.5178C8.71253 12.4368 10.0076 9.0807 11.4338 5.53417C12.695 2.39393 12.7077 2.39816 15.0523 2.90179C15.484 2.99489 15.9749 3.1007 16.47 3.19803L24.2826 4.73853C24.6762 4.84857 24.9682 5.02209 25.1671 5.25485C25.3702 5.49185 25.5014 5.80503 25.5649 6.19862C25.5268 7.3413 25.5099 8.6067 25.493 9.92713C25.4591 12.6018 25.421 15.5347 25.1628 18.4041ZM37.0298 51.6983C36.2637 51.8464 35.5231 51.3428 35.375 50.5768C35.2269 49.8108 35.7305 49.0702 36.4965 48.922L42.4511 47.7709L39.9076 35.3369C39.04 35.4215 38.2063 35.4088 37.4149 35.2988C35.6712 35.0576 34.1307 34.3593 32.7892 33.2166C29.0691 30.0552 27.6217 24.8962 27.0377 19.5129C26.4536 24.892 25.0063 30.0509 21.2862 33.2166C19.9404 34.3593 18.3999 35.0576 16.6605 35.2988C15.8691 35.4088 15.0396 35.4215 14.1678 35.3369L11.4507 48.63L17.1726 49.7388C17.9386 49.887 18.4422 50.6276 18.2941 51.3936C18.146 52.1596 17.4053 52.6632 16.6393 52.5151L2.35586 49.7515C1.58985 49.6034 1.08622 48.8628 1.23435 48.0968C1.38247 47.3307 2.1231 46.8271 2.88911 46.9753L8.67444 48.0925L11.3999 34.774C11.2984 34.7444 11.1968 34.7105 11.091 34.6767C11.0741 34.6724 11.0571 34.6682 11.0402 34.6597C5.44956 32.8399 3.6509 28.8702 4.03179 23.4234C4.38729 18.3195 6.73612 11.9205 9.59705 4.79778C11.4846 0.108575 11.5015 0.112807 15.4628 0.963467C15.8479 1.04811 16.2881 1.14122 16.8467 1.25125L24.6762 2.79598C24.6973 2.80021 24.7185 2.80445 24.7396 2.80868C25.5564 3.02452 26.1913 3.41387 26.6653 3.96405C26.8049 4.1291 26.9276 4.30262 27.0377 4.48884C27.1435 4.30262 27.2705 4.12487 27.4101 3.96405C27.8841 3.41387 28.5232 3.02452 29.3357 2.80868C29.3569 2.80445 29.3781 2.80021 29.3992 2.79598L37.2287 1.25125C37.7873 1.14122 38.2275 1.04811 38.6126 0.963467C42.5739 0.112807 42.5908 0.108575 44.4741 4.79778C47.3392 11.9205 49.6838 18.3195 50.0393 23.4234C50.4202 28.8659 48.6216 32.8399 43.0309 34.6597C43.014 34.664 42.9971 34.6682 42.9801 34.6767C42.8786 34.7105 42.7728 34.7401 42.6712 34.774L45.2189 47.2376L50.7757 46.1627C51.5418 46.0146 52.2824 46.5182 52.4305 47.2842C52.5786 48.0502 52.075 48.7908 51.309 48.939L37.0298 51.6983ZM32.5691 25.7257C32.4548 25.4337 32.5987 25.1078 32.8907 24.9935C33.1827 24.8793 33.5086 25.0232 33.6229 25.3152C34.3466 27.1562 35.3496 28.5104 36.5938 29.4415C37.8339 30.3641 39.3278 30.8762 41.0418 31.0243C41.355 31.0497 41.5835 31.3248 41.5581 31.638C41.5327 31.9512 41.2577 32.1797 40.9445 32.1543C39.0231 31.985 37.3345 31.4052 35.9167 30.3514C34.5074 29.2934 33.3774 27.774 32.5691 25.7257ZM28.9548 18.8696C35.3835 15.9706 42.0491 12.8431 45.4729 12.9489C44.6476 10.6 43.6784 8.11578 42.6416 5.53417C41.3804 2.39393 41.3677 2.39816 39.0231 2.90179C38.5914 2.99489 38.1005 3.1007 37.6053 3.19803L29.797 4.73853C29.4035 4.84857 29.1114 5.02209 28.9125 5.25485C28.7094 5.49185 28.5782 5.80503 28.5147 6.19862C28.5528 7.3413 28.5697 8.6067 28.5866 9.92713C28.6163 12.7457 28.6544 15.8521 28.9548 18.8696ZM21.811 23.1737C21.8533 22.8648 22.1411 22.6489 22.45 22.6955C22.759 22.7378 22.9748 23.0256 22.9283 23.3345C22.6109 25.5099 21.8618 27.2493 20.7233 28.5993C19.5849 29.9536 18.074 30.9058 16.2457 31.5068C15.9495 31.6041 15.6278 31.4433 15.5305 31.1471C15.4332 30.8508 15.594 30.5292 15.8902 30.4318C17.5281 29.8944 18.8654 29.0564 19.86 27.8714C20.863 26.6864 21.5232 25.1374 21.811 23.1737Z" fill="#FFEFDB"/>
</g>
</g>
<defs>
<clipPath id="clip0_56_2380">
<rect width="52.0045" height="52.0045" fill="white" transform="translate(0.83252 0.531738)"/>
</clipPath>
</defs>
</svg>
