<svg width="63" height="62" viewBox="0 0 63 62" fill="none" xmlns="http://www.w3.org/2000/svg">
<g id="food-dinner-lunch-knife-fork-svgrepo-com 1">
<g id="Group">
<path id="Vector" d="M40.174 24.7427C40.5603 25.1289 41.1396 25.322 41.5258 25.322C41.912 25.322 42.4913 25.1289 42.8775 24.7427L53.3052 14.315C54.0776 13.5426 54.0776 12.384 53.3052 11.6115C52.5328 10.8391 51.3741 10.8391 50.6017 11.6115L40.174 22.0392C39.4016 22.8116 39.4016 23.9703 40.174 24.7427Z" fill="#FFEFDB"/>
<path id="Vector_2" d="M58.5186 19.5288C59.291 18.7564 59.291 17.5978 58.5186 16.8253C57.7462 16.0529 56.5875 16.0529 55.8151 16.8253L46.353 26.2875C43.8426 28.7978 41.5253 30.1496 39.2081 30.1496C38.8219 30.1496 38.2426 30.1496 37.8563 30.3427L34.5736 27.0599C34.5736 26.6737 34.7667 26.0944 34.7667 25.7082C34.9598 23.584 36.3115 21.0736 38.6288 18.5633L48.0909 9.10114C48.8633 8.32872 48.8633 7.17009 48.0909 6.39767C47.3185 5.62525 46.1599 5.62525 45.3874 6.39767L35.9253 15.8598C33.4149 18.3702 31.8701 21.0736 31.0977 23.584L14.2975 6.78388C13.5251 6.01146 12.3665 6.01146 11.5941 6.78388C5.99403 12.3839 5.99403 21.653 11.5941 27.4461L27.6218 43.4738C28.2011 44.0531 28.9735 44.2462 29.7459 43.86C31.8701 42.8945 34.3805 43.4738 35.9253 45.4049L43.8426 55.2532C45.0012 56.7981 46.7392 57.5705 48.6702 57.7636C48.8633 57.7636 48.8633 57.7636 49.0564 57.7636C50.7944 57.7636 52.5323 56.9912 53.8841 55.8325C55.2358 54.4808 55.8151 52.936 55.8151 51.0049C55.8151 49.0739 55.0427 47.529 53.8841 46.1773L41.3322 33.6255C43.8426 33.0462 46.5461 31.5013 49.0564 28.7978L58.5186 19.5288Z" fill="#FFEFDB"/>
<path id="Vector_3" d="M9.47011 46.7565C8.11838 47.9151 7.15285 49.4599 6.95975 51.1979C6.76664 52.9358 7.53906 54.6738 8.69769 56.0255C9.85632 57.3772 11.4012 57.9566 13.1391 57.9566C13.3322 57.9566 13.5253 57.9566 13.5253 57.9566C15.2633 57.7634 17.0012 56.991 17.9667 55.6393L25.1116 46.7565L18.1598 39.8047L9.47011 46.7565Z" fill="#FFEFDB"/>
</g>
</g>
</svg>
